<?xml version="1.0" encoding="UTF-8"?>
<svg width="31.88" height="32" viewBox="0 0 256 258" xmlns="http://www.w3.org/2000/svg">
  <defs>
    <linearGradient id="vitelg" x1="0" x2="1" y1="0.5" y2="0.5">
      <stop offset="0" stop-color="#41D1FF"/>
      <stop offset="1" stop-color="#BD34FE"/>
    </linearGradient>
    <linearGradient id="vitelg2" x1="0.558" x2="0.563" y1="0.013" y2="0.993">
      <stop offset="0" stop-color="#FFEA83"/>
      <stop offset="0.083" stop-color="#FFDD35"/>
      <stop offset="1" stop-color="#FFA800"/>
    </linearGradient>
  </defs>
  <path d="M255.153 37.938a20.787 20.787 0 0 0-7.347-10.323A20.168 20.168 0 0 0 233.27 23.3L134.01 5.266a20.845 20.845 0 0 0-12.502 1.737 20.251 20.251 0 0 0-8.686 7.606L3.109 165.92a20.637 20.637 0 0 0-3.047 13.644 20.996 20.996 0 0 0 4.865 11.233 20.331 20.331 0 0 0 10.25 6.657l87.308 23.926a20.802 20.802 0 0 0 18.296-4.04 20.313 20.313 0 0 0 7.344-11.507l9.953-49.054 70.507 11.536a20.805 20.805 0 0 0 12.278-1.735 20.263 20.263 0 0 0 8.838-7.384l55.957-95.922a20.738 20.738 0 0 0 2.972-13.13z" fill="url(#vitelg)"/>
  <path d="M185.432 0 96.802 176.365l34.592 5.654 17.53 59.978L255.153 37.938a20.787 20.787 0 0 0-7.347-10.323 20.168 20.168 0 0 0-14.536-4.315z" fill="url(#vitelg2)"/>
</svg>

